<svg xmlns="http://www.w3.org/2000/svg" width="258" height="48" viewBox="0 0 258 48" role="img" aria-labelledby="title">
  <title id="title">Project Recovery</title>
  <rect width="48" height="48" rx="14" fill="#7a3658"/>
  <path d="M14 27.5c0-7.2 5.3-13 12-13s12 5.8 12 13c0 3.7-1.5 7-4 9.3-1.4 1.3-3.6.3-3.6-1.6v-3.1c0-.7-.5-1.3-1.2-1.3h-6.4c-.7 0-1.2.6-1.2 1.3v3.1c0 1.9-2.2 2.9-3.6 1.6A12.7 12.7 0 0 1 14 27.5Z" fill="#fffdf9"/>
  <circle cx="22" cy="23" r="2" fill="#28756f"/>
  <circle cx="30" cy="23" r="2" fill="#28756f"/>
  <path d="M22 27.5c2.3 1.5 4.7 1.5 7 0" stroke="#28756f" stroke-width="2" stroke-linecap="round"/>
  <text x="62" y="30" fill="#24313a" font-family="Segoe UI,Arial,sans-serif" font-size="22" font-weight="700">Project Recovery</text>
</svg>
